<svg xmlns="http://www.w3.org/2000/svg" version="1" viewBox="0 0 600 266">
  <g desc="all" fill="#1977E0">
    <g desc="no" transform="translate(286, 0)">
      <g desc="n">
        <path d="M81.8 109.9c-10 3.3-18.1 9.1-23.2 16.5-1.9 2.9-2.6 3.4-2.7 2-.3-10.1-.8-16.7-1.3-17.1-.5-.5-4.1-.6-12.1-.4l-3.1.1.3 28.2c.2 15.6.3 41.2.3 57V225h16.5l.2-34.8c.1-28.5.4-35.5 1.7-39 .8-2.3 1.3-4.2 1-4.2-1.4 0 6.1-12.3 9.5-15.7 6.3-6.2 12.3-8.7 21.3-9 9.1-.2 13.8.9 19.4 4.8 4.9 3.3 7.6 7.3 9.8 14.4 2.4 7.6 2.4 8.5 2.5 47.2l.1 36.3h17l-.1-38.4c0-39.9-.6-46.9-4.6-55.3-4.9-10.5-12.2-17.5-21.8-20.8-7.6-2.7-23.5-3-30.7-.6z"/>
      </g>
      <g desc="o">
        <path d="M195.6 109.6c-28.1 6.8-46 31-45 60.8.2 7.6 1.9 17 3.4 19.1.3.5 1.3 2.6 2 4.5 2 5.3 9.3 15 14.5 19.5 12.3 10.4 25.4 14.6 43.5 14 22-.7 38.7-10 49.5-27.5 6.2-10.3 7.9-16.9 8-31.5 0-8.4-.5-14.8-1.4-18-2.3-7.9-7.7-17.4-14.6-25.3-3.8-4.5-16.5-12.1-23.8-14.4-9-2.7-27.1-3.3-36.1-1.2zm25.9 30.3l9.6 9.4-2.8 3c-1.5 1.7-5.4 5.5-8.6 8.5l-5.8 5.6 8.8 8.8 8.8 8.9-10.1 9.9c-7.2 7.2-10.6 9.9-11.8 9.4-1.4-.5-1.6-2.6-1.6-15.5 0-8.2-.2-14.9-.5-14.9s-3.5 2.8-7.1 6.2c-6.2 6-9.9 7.8-9.9 5 0-.7 3.7-5 8.3-9.6l8.3-8.2-7.6-7.3c-7.8-7.6-9.9-10.4-8.8-11.5 1.5-1.5 3.6-.2 9.9 5.9 3.7 3.6 6.9 6.3 7.2 6.1.2-.3.4-6.2.4-13.3-.1-14.1.3-16.6 2.4-16.1.7.2 5.7 4.5 10.9 9.7z"/>
        <path d="M213 149.5v11.6l2.4-2.4c1.4-1.4 3.8-4 5.4-5.9l3-3.4-5.4-5.8-5.4-5.7v11.6zm0 34.5v12.2l6.1-6.1 6.1-6.1-6.1-6-6.1-6.1V184z"/>
      </g>
    </g>
    <g desc="ble" transform="translate(-246, 0)">
      <g desc="b">
        <path d="M287.4 40.8l-2.1.3V225H302v-18.9l4.8 5.1c9.9 10.7 21.9 15.9 37.3 16.3 28 .8 48.7-13.5 57.3-39.6 2.3-6.9 2.8-10.3 2.9-18.9.1-12.6-1.2-18.8-6.4-29.6-9.6-20.3-30.1-32-54.4-31.3-3.8.1-8.7.8-10.7 1.5-2.1.7-3.8 1.1-3.8.8 0-.3-3.6 1.4-8 3.7-5.7 2.9-9.6 5.9-13.5 10.2l-5.5 6V40.5h-6.3c-3.4 0-7.2.1-8.3.3zm74.7 84.9c16.4 7.5 25.2 23.5 24.4 44.3-.7 18.5-7.6 30.7-21.6 38.4-7.4 4-14.7 5.6-23.9 5.1-24.6-1.4-42.5-22.8-40.7-48.5 1-12.9 4.8-21.9 12.9-30.3 9.1-9.3 17.9-12.6 32.8-12.2 8.1.2 10.5.6 16.1 3.2z"/>
      </g>
      <g desc="l">
        <path d="M418.2 41.4c-.6 1.1-1 177.5-.3 181.3.3 2.2.8 2.3 8.2 2.3 6.8 0 7.9-.2 8-1.8.4-6.8.3-180.5-.1-181.5-.6-1.5-14.9-1.7-15.8-.3z"/>
      </g>
      <g desc="e">
        <path d="M489.3 110c-13.6 3.9-25.4 12.9-32.7 24.9-6.7 11-9.1 20.3-8.9 35.2.3 25.1 16.3 47.3 40 55.1 5.5 1.8 9.1 2.2 18.8 2.2 13.3.1 20.9-1.8 31-7.5 5-2.8 17.5-14.2 17.5-15.9 0-.5-2.6-2.9-5.7-5.3l-5.7-4.4-6.1 6.1c-5.2 5.2-13.3 10.5-17 11.2-.5.1-2.8.6-5 1.1-2.2.6-7.1.9-10.8.8-13.1-.5-24.9-7.1-32.4-18.3-4.4-6.6-6-10.7-7-18.3l-.5-4.5 45.8.1c25.3 0 46.6-.1 47.5-.3 1.4-.3 1.6-1.7 1.4-9.1-.2-10.8-1.8-17.6-6.2-26.8-6.3-13.5-19.5-23.8-34.4-26.9-9.1-1.9-21.7-1.6-29.6.6zm32.9 15.3c7.1 3.5 12.3 8.6 15.7 15.5 3 5.9 5.5 15.7 4.5 17.3-.3.5-16.7.9-38.9.9h-38.3l.3-3.3c1.1-11.3 10.5-23.8 22.1-29.7 7-3.4 9.9-4 20.1-3.6 7.5.3 10.2.8 14.5 2.9z"/>
      </g>
    </g>
  </g>
</svg>
